<?xml version="1.0" encoding="utf-8"?>
<!-- Generator: Adobe Illustrator 19.1.0, SVG Export Plug-In . SVG Version: 6.00 Build 0)  -->
<svg version="1.1" id="Layer_1" xmlns="http://www.w3.org/2000/svg" xmlns:xlink="http://www.w3.org/1999/xlink" x="0px" y="0px"
	 width="1000px" height="1000px" viewBox="0 0 1000 1000" style="enable-background:new 0 0 1000 1000;" xml:space="preserve">
<g>
	<path d="M993.6,540.7c-0.2-3.2-1.1-6.3-2.6-9.2c-1.5-2.9-3.5-5.6-5.9-7.9c-2.7-2.6-5.9-4.9-9.3-6.5c-3.4-1.7-7-2.9-10.7-3.4
		c-4.4-0.7-8.9-0.5-13.2,0.8c-5.2,1.5-9.7,4.3-13.6,8c-0.8,0.7-1.6,1.5-2.4,2.2c-0.2-3.3-0.7-6.6-1.5-9.7
		c-2.4-8.7-7.4-15.6-15.5-19.7c-3.7-1.9-7.8-3.1-11.8-3.6c-4-0.4-8.2-0.1-12.1,0.9c-3.7,1.1-7.2,3-10.1,5.5
		c-3.1,2.6-5.6,5.8-7.4,9.3c-0.4,0.7-0.7,1.5-1.1,2.3c-2.2-13.7-8.9-26.6-19.8-34c-13.3-9-32.7-9.7-45-4
		c-12.2,5.7-17.3,17.9-17,30.4c0.2,12.6,5.8,25.6,14.3,33.3c4.5,4,9.7,6.5,15.5,7.5c4.7,0.8,9.2,1.1,13.8-0.6
		c9-3.2,15.3-12.1,16.4-20.9c1.1-9-2.9-18-9.2-22.9c-8-6.2-14.4-5.1-19.6-2.5c-4.8,2.3-7.6,8.1-7.6,13.1c-0.1,4.5,2.1,8.6,7,9.2
		c3.8,0.6,7-3.2,7-7.1c0-2.9-1.8-5.5-4.2-6.6c1.5-1.8,4.7-1.9,8.2,0.6c4.3,3,8.7,10.1,7.4,16.3c-1.4,6.3-8.7,11.8-16.5,10.6
		c-7.7-1.2-15.9-9.2-18.7-19c-2.8-9.6-0.3-21.1,7.8-26.8c8.1-5.7,21.7-5.5,31.7,0.8c10,6.4,16.4,19,16.4,31.8
		c0,12.8-6.3,25.9-17.6,34.7c-11.3,8.7-27.5,13.1-48.6,10.4c-7.4-1-15.5-2.9-24.3-5.7l55.6-323.6c0.4-2.3,0.6-4.6,0.5-6.9
		c-0.2-15.8-1.7-79.3-11.5-91.1c0,0-78.1,42.4-160.2,402.2l36.5,4.7L697,556h0c-4.9,3.4-7.3,9.4-8.4,14.7c0,0.1,0,0.5,0,0.5H585
		c6.3-84.7,11.8-155.7,11.8-155.7v-0.1c1.7-9.1,8.3-16.6,16.9-19.6c32.4-11.1,49-41.8,53.3-51.1c0.8-1.6,1.4-3.3,1.8-5
		c4.7-19.4,36.7-154.7,30-179.9c-7.2-27.2-88.8-33.5-88.8-33.5s-81.3-9.5-93.3,15.8c-12,25.3-3.4,185-3.4,185l0,0
		c0,0,8.4,42.9,43.6,63.2c7.9,4.6,12.9,13.3,12.9,22.6c0,0-7.5,71.7-17.1,158.1H428.5c-1.7-25.4-2.9-42-3-44.3
		c-1.8-48.8,2.6-97.1,17.1-144.8c6.8-22.1,17.9-42.7,23.7-65.2c6.1-23.4,8.9-47.8,10-71.9c3.9-82.2-43.1-130.4-87.4-127.9
		c-45.2,2.6-71,50.1-75.1,91.2c-1.4,14.5-2.7,30.3-1,45.9v0c0,15.8,3.2,31.6,7.4,45.7c6.8,22.7,20.1,42.5,28.7,64.3
		c6.8,17.1,17.1,34.9,21.5,52.8c8.8,36.3,13.9,74.3,15.6,111.6c0.6,14.1,1,27.4,1.4,42.6H283.3c-0.9-5.1-1.8-8.2-2.7-12.2
		c-16-68.4-22.9-136.8-11-206.4c11.1-64.8,7.2-129.1-7.2-192.9c-1.8-7.9-3.8-16.8-8.6-22.8c-3.8-4.7-8.7-9.3-15-7.7
		c-6.2,1.5-10,10.5-9.4,15.5c2.6,21.6,6.8,43,10.4,64.5c3,18,6.4,36,8.3,54.1c1.6,15.6-15.7,18.5-18.7,2.8
		c-0.7-3.6-1.8-7.9-2.4-11.9c-5.3-31.3-10.5-62.7-15.8-94c-2.2-12.6-2.2-28.6-21-25c-8.2,1.5-12.6,12.6-9.5,31.3
		c5.4,32.2,14.2,82,17.1,105.6c1.8,14.8-15.4,18.7-18.9,3.4c-4.5-20.1-7.4-40.5-10.9-60.8l-0.1,0c-3.5-20.3-6.4-40.7-10.9-60.8
		c-1-4.5-4.1-12-12.1-10.4c-11.4,2.4-11.1,18.1-11,21c2.8,62.5,14.1,123.4,43.8,178.6v0c34.3,68.3,49.5,142.1,60.6,216.1
		c-7.6,2.3-14.7,3.9-21.3,4.8c-21.1,2.7-37.3-1.7-48.6-10.4c-11.3-8.7-17.6-21.9-17.6-34.7c0-12.9,6.3-25.4,16.4-31.8
		c10-6.3,23.6-6.5,31.7-0.8c8.1,5.7,10.6,17.1,7.8,26.8c-2.8,9.7-11,17.7-18.7,19c-7.8,1.2-15.1-4.2-16.5-10.6
		c-1.4-6.2,3.1-13.3,7.4-16.3c3.5-2.5,6.7-2.4,8.2-0.6c-2.4,1.1-4.2,3.7-4.2,6.6c0,3.9,3.2,7.6,7,7.1c4.9-0.7,7-4.7,7-9.2
		c0-5.1-2.8-10.8-7.6-13.1c-5.2-2.6-11.6-3.7-19.6,2.5c-6.2,4.9-10.3,14-9.2,22.9c1.1,8.9,7.5,17.8,16.4,20.9
		c4.6,1.6,9.1,1.4,13.8,0.6c5.8-1,11-3.6,15.5-7.5c8.6-7.7,14.1-20.7,14.3-33.3c0.3-12.6-4.8-24.8-17-30.4c-12.3-5.7-31.7-5-45,4
		c-10.9,7.4-17.6,20.3-19.8,34c-0.3-0.8-0.7-1.5-1.1-2.3c-1.8-3.5-4.3-6.7-7.4-9.3c-2.9-2.5-6.4-4.4-10.1-5.5
		c-3.9-1.1-8.1-1.3-12.1-0.9c-4,0.5-8.1,1.7-11.8,3.6c-8,4.1-13.1,11-15.5,19.7c-0.8,3.1-1.4,6.5-1.5,9.7c-0.8-0.7-1.5-1.6-2.4-2.2
		c-3.9-3.7-8.4-6.4-13.6-8c-4.3-1.2-8.7-1.4-13.2-0.8c-3.7,0.6-7.3,1.7-10.7,3.4c-3.4,1.6-6.6,3.9-9.3,6.5c-2.3,2.3-4.4,5-5.9,7.9
		c-1.5,2.9-2.4,6-2.6,9.2c-0.2,3.3,0.1,6.6,1.1,9.6c1,3,2.5,5.9,4.6,8.2c2.1,2.1,4.6,3.8,7.4,4.8c2.7,1.1,5.8,1.7,8.8,1.7
		c2.5,0,5-0.5,7.4-1.4c2.3-1,4.4-2.4,6.2-4.1c1.6-1.6,2.9-3.4,4-5.4c1-2,1.8-4.1,2.1-6.3c0.6-4.7-0.5-9.4-4.1-12.6
		c-1.8-1.6-4.1-2.7-6.4-3.1c-2.4-0.5-5-0.3-7.2,0.9s-3.7,3.3-4.3,5.7c-0.7,2.3-0.6,4.9,0.4,7.1c0.8,2,2.3,3.5,4.1,4.6
		c1.6,1,3.7,1.7,5.5,1.6c-0.2,0.3-0.4,0.5-0.6,0.7c-1,0.9-2.1,1.7-3.3,2.2c-1.3,0.5-2.6,0.7-4,0.8c-1.8,0-3.6-0.4-5.3-1
		c-1.5-0.6-2.9-1.4-4-2.6c-1.2-1.3-2-2.9-2.5-4.5c-0.6-2-0.9-4-0.7-6.1c0.1-2,0.7-3.9,1.6-5.7c1-2,2.4-3.9,4.1-5.4c2-2,4.4-3.7,7-5
		c2.5-1.3,5.2-2.1,8-2.5c3.1-0.5,6.2-0.4,9.3,0.5c3.8,1.1,7,3.2,9.9,5.9c5.4,5,9.5,10.8,12.7,17.4c2.5,5.2,6.3,9.9,10.5,13.7
		c4.7,4.2,10.1,7.6,15.8,10.1c0.6,0.3,1.2,0.5,1.9,0.8h-9.5c-4.6,0-8.3,5.5-8.3,10.2l0,0c0,4.7,3.7,8.5,8.3,8.5l812.3-1.7
		c4.6,0,8.3-3.8,8.3-8.5l0,0c0-4.7-3.7-8.5-8.3-8.5h-10c0.6-0.3,1.3-0.5,1.9-0.8c5.7-2.5,11.1-5.9,15.8-10.1
		c4.3-3.8,8-8.5,10.5-13.7c3.2-6.6,7.3-12.4,12.7-17.4c2.9-2.7,6.1-4.7,9.9-5.9c3.1-0.8,6.2-1,9.3-0.5c2.8,0.4,5.5,1.3,8,2.5
		c2.5,1.3,5,3,7,5c1.7,1.5,3.1,3.4,4.1,5.4c0.9,1.8,1.5,3.8,1.6,5.7c0.2,2-0.1,4.1-0.7,6.1c-0.5,1.6-1.3,3.2-2.5,4.5
		c-1.1,1.2-2.5,2-4,2.6c-1.7,0.7-3.5,1-5.3,1c-1.4,0-2.7-0.3-4-0.8c-1.2-0.5-2.3-1.3-3.3-2.2c-0.2-0.2-0.5-0.4-0.6-0.7
		c1.9,0,3.9-0.7,5.5-1.6c1.8-1.1,3.3-2.6,4.1-4.6c1-2.2,1.1-4.8,0.4-7.1c-0.7-2.4-2.2-4.5-4.3-5.7c-2.2-1.2-4.8-1.4-7.2-0.9
		c-2.3,0.4-4.6,1.5-6.4,3.1c-3.6,3.2-4.7,7.9-4.1,12.6c0.3,2.2,1.1,4.3,2.1,6.3c1,2,2.4,3.8,4,5.4c1.8,1.7,3.9,3.1,6.2,4.1
		c2.4,1,4.9,1.4,7.4,1.4c3,0.1,6.1-0.5,8.8-1.7c2.7-1,5.3-2.7,7.4-4.8c2.1-2.3,3.6-5.2,4.6-8.2C993.5,547.3,993.8,544,993.6,540.7z
		 M548.5,304c-9.9,19.7-15.2-1.5-15.2-1.5l-1.2-126.6c15.3-17.5,16.8,1.6,16.8,1.6L548.5,304z M99.9,553c-3.3-3-6.2-6.6-8.2-10.7
		c-1.7-3.7-2.8-7.8-3.1-11.8c-0.4-4.3,0-8.8,1.2-12.9c1.6-6,4.9-10.8,10.4-13.6c2.6-1.3,5.6-2.2,8.5-2.5c2.8-0.3,5.6-0.2,8.3,0.6
		c2.4,0.7,4.7,2,6.6,3.6c2,1.7,3.7,3.8,5,6.2c1.2,2.3,2,4.8,2.3,7.3c0.3,2.2,0.3,4.6-0.3,6.8c-0.4,1.5-1.1,2.8-2.1,4
		c0.7-2.1,0.8-4.4,0-6.7c-1.2-3-3.9-5.3-7-6.3c-1.5-0.5-3.1-0.6-4.6-0.5c-1.6,0.1-3.1,0.6-4.5,1.3c-3.3,1.6-5.4,4.4-6.3,8
		c-0.5,2.4-0.6,5,0,7.4c0.6,2.5,1.9,4.6,3.9,6.3c2.2,1.8,5.4,2.8,8.2,3.2c2.9,0.4,6.2,0.1,9-0.8c3-0.9,5.8-2.5,8.2-4.9
		c1.4-1.5,2.5-3.2,3.4-5c2.4,12.1,8.5,23.2,17.9,31.1c0.7,0.6,1.4,1.2,2.2,1.7c-4,0.8-8.1,1.4-12.2,1.8c-6,0.5-12,0.3-17.9-0.6
		c-5.4-0.8-10.6-2.3-15.6-4.5C108.3,559.3,103.8,556.4,99.9,553z M656,187.5c0,0,3.2-18.6,15.2,1.5l-24.5,124.3c0,0-7.8,19.8-14-1.4
		L656,187.5L656,187.5z M627,173.9c0,0,2.9-20.3,16.8,0.9L623,310.4c0,0-7.7,21.9-15.4-0.8L627,173.9L627,173.9z M580,169.5
		l-6.4,136.8c-11.6,20.9-16.5-2.3-16.5-2.3l4.7-137.1C579.1,148.7,580,169.5,580,169.5L580,169.5z M593.3,164.1
		c19-17.9,18.7,3.7,18.7,3.7l-13.4,141.4c-13.1,21-16.9-3.3-16.9-3.3L593.3,164.1z M926.1,530.5c-0.3,4.1-1.3,8.1-3.1,11.8
		c-2,4.1-4.9,7.7-8.2,10.7c-3.9,3.4-8.4,6.3-13.1,8.4c-5,2.2-10.3,3.7-15.6,4.5c-6,0.9-12,1.1-17.9,0.6c-4.1-0.3-8.2-1-12.2-1.8
		c0.7-0.6,1.5-1.1,2.2-1.7c9.4-7.9,15.4-19,17.9-31.1c0.9,1.8,2,3.5,3.4,5c2.3,2.3,5.1,4,8.2,4.9c2.9,0.8,6.1,1.1,9,0.8
		c2.9-0.4,6-1.4,8.2-3.2c2-1.7,3.3-3.8,3.9-6.3c0.6-2.4,0.5-5,0-7.4c-0.9-3.6-3-6.4-6.3-8c-1.4-0.7-2.9-1.2-4.5-1.3
		c-1.5-0.1-3.1,0-4.6,0.5c-3,1-5.8,3.3-7,6.3c-0.9,2.3-0.8,4.6,0,6.7c-1-1.1-1.7-2.5-2.1-4c-0.5-2.2-0.6-4.5-0.3-6.8
		c0.3-2.5,1.1-5,2.3-7.3c1.2-2.4,2.9-4.5,5-6.2c1.9-1.7,4.2-2.9,6.6-3.6c2.7-0.7,5.5-0.9,8.3-0.6c2.9,0.3,5.9,1.2,8.5,2.5
		c5.5,2.9,8.8,7.6,10.4,13.6C926.1,521.7,926.4,526.2,926.1,530.5z"/>
	<path d="M954.9,783.6c-2.1-2.1-4.6-3.8-7.4-4.8c-2.7-1.1-5.8-1.7-8.8-1.7c-2.5,0-5,0.5-7.4,1.4c-2.3,1-4.4,2.4-6.2,4.1
		c-1.6,1.6-2.9,3.4-4,5.4c-1,2-1.8,4.1-2.1,6.3c-0.6,4.7,0.5,9.4,4.1,12.6c1.8,1.6,4.1,2.7,6.4,3.1c2.4,0.5,5,0.3,7.2-0.9
		c2.2-1.2,3.7-3.3,4.3-5.7c0.7-2.3,0.6-4.9-0.4-7.1c-0.8-2-2.3-3.5-4.1-4.6c-1.6-1-3.7-1.7-5.5-1.6c0.2-0.3,0.4-0.5,0.6-0.7
		c1-0.9,2.1-1.7,3.3-2.2c1.3-0.5,2.6-0.7,4-0.8c1.8,0,3.6,0.4,5.3,1c1.5,0.6,2.9,1.4,4,2.6c1.2,1.3,2,2.9,2.5,4.5
		c0.6,2,0.9,4,0.7,6.1c-0.1,2-0.7,3.9-1.6,5.7c-1,2-2.4,3.9-4.1,5.4c-2,2-4.4,3.7-7,5c-2.5,1.3-5.2,2.1-8,2.5
		c-3.1,0.5-6.2,0.4-9.3-0.5c-3.8-1.1-7-3.2-9.9-5.9c-5.4-5-9.5-10.8-12.7-17.4c-2.5-5.2-6.3-9.9-10.5-13.7
		c-4.7-4.2-10.1-7.6-15.8-10.1c-0.4-0.2-0.9-0.3-1.3-0.5h9.4c4.6,0,8.3-5.5,8.3-10.2l0,0c0-4.7-3.7-8.5-8.3-8.5H134.5
		c-4.6,0-8.3,3.8-8.3,8.5l0,0c0,4.7,3.7,10.2,8.3,10.2h8.9c-0.4,0.2-0.9,0.3-1.3,0.5c-5.7,2.5-11.1,5.9-15.8,10.1
		c-4.3,3.8-8,8.5-10.5,13.7c-3.2,6.6-7.3,12.4-12.7,17.4c-2.9,2.7-6.1,4.7-9.9,5.9c-3.1,0.8-6.2,1-9.3,0.5c-2.8-0.4-5.5-1.3-8-2.5
		c-2.5-1.3-5-3-7-5c-1.7-1.5-3.1-3.4-4.1-5.4c-0.9-1.8-1.5-3.8-1.6-5.7c-0.2-2,0.1-4.1,0.7-6.1c0.5-1.6,1.3-3.2,2.5-4.5
		c1.1-1.2,2.5-2,4-2.6c1.7-0.7,3.5-1,5.3-1c1.4,0,2.7,0.3,4,0.8c1.2,0.5,2.3,1.3,3.3,2.2c0.2,0.2,0.5,0.4,0.6,0.7
		c-1.9,0-3.9,0.7-5.5,1.6c-1.8,1.1-3.3,2.6-4.1,4.6c-1,2.2-1.1,4.8-0.4,7.1c0.7,2.4,2.2,4.5,4.3,5.7c2.2,1.2,4.8,1.4,7.2,0.9
		c2.3-0.4,4.6-1.5,6.4-3.1c3.6-3.2,4.7-7.9,4.1-12.6c-0.3-2.2-1.1-4.3-2.1-6.3c-1-2-2.4-3.8-4-5.4c-1.8-1.7-3.9-3.1-6.2-4.1
		c-2.4-1-4.9-1.4-7.4-1.4c-3-0.1-6.1,0.5-8.8,1.7c-2.7,1-5.3,2.7-7.4,4.8c-2.1,2.3-3.6,5.2-4.6,8.2c-1,3-1.3,6.4-1.1,9.6
		c0.2,3.2,1.1,6.3,2.6,9.2c1.5,2.9,3.5,5.6,5.9,7.9c2.7,2.6,5.9,4.9,9.3,6.5c3.4,1.7,7,2.9,10.7,3.4c4.4,0.7,8.9,0.5,13.2-0.8
		c5.2-1.5,9.7-4.3,13.6-8c0.8-0.7,1.6-1.5,2.4-2.2c0.2,3.3,0.7,6.6,1.5,9.7c2.4,8.7,7.4,15.6,15.5,19.7c3.7,1.9,7.8,3.1,11.8,3.6
		c4,0.4,8.2,0.1,12.1-0.9c3.7-1.1,7.2-3,10.1-5.5c3.1-2.6,5.6-5.8,7.4-9.3c0.4-0.7,0.7-1.5,1.1-2.3c2.2,13.7,8.9,26.6,19.8,34
		c13.3,9,32.7,9.7,45,4c12.2-5.7,17.3-17.9,17-30.4c-0.2-12.6-5.8-25.6-14.3-33.3c-4.5-4-9.7-6.5-15.5-7.5
		c-4.7-0.8-9.2-1.1-13.8,0.6c-9,3.2-15.3,12.1-16.4,20.9c-1.1,9,2.9,18,9.2,22.9c8,6.2,14.4,5.1,19.6,2.5c4.8-2.3,7.6-8.1,7.6-13.1
		c0.1-4.5-2.1-8.6-7-9.2c-3.8-0.6-7,3.2-7,7.1c0,2.9,1.8,5.5,4.2,6.6c-1.5,1.8-4.7,1.9-8.2-0.6c-4.3-3-8.7-10.1-7.4-16.3
		c1.4-6.3,8.7-11.8,16.5-10.6c7.7,1.2,15.9,9.2,18.7,19c2.8,9.6,0.3,21.1-7.8,26.8c-8.1,5.7-21.7,5.5-31.7-0.8
		c-10-6.4-16.4-19-16.4-31.8c0-12.8,6.3-25.9,17.6-34.7c11.3-8.7,27.5-13.1,48.6-10.4c5.4,0.7,11.1,1.9,17.1,3.6
		c6.6,37.3,13.4,75.1,19.7,112.6c1.5,9,3.5,22.9,9.4,29.3c15.5,15.5,42.6,4.1,39.3-22.9c-0.1-0.5-0.1-0.9-0.2-1.2
		c-4.9-36-8.8-72.2-15.2-107.9c-1.2-6.9-2.5-13.7-3.7-20.5h76.4c2.9,62.7,6.2,122.4,6.3,125.6c0.4,8.7-0.2,18.3,4.7,25.1
		c9.4,15.4,43.6,13.7,43.6-22.3c-0.3-13.6-3.6-67.4-7.5-128.4h93.7c-7,55.9-13.3,101.3-16.7,112.8c-6.4,21.2,0.2,33.6,7.8,40.6
		c8,7.4,19.9,8.6,29.2,2.9c8.8-5.4,17.8-16.3,15.3-38.4c-1.3-12.2,0.8-60.3,4.5-117.9h90.7c-3.9,28.8-4.2,52.6-4.2,52.6
		c17.3,27,2.5,44.2-5.4,50.8c-2.8,2.3-4.5,5.8-4.7,9.5c-3,60.1,38.5,48.6,57.8,40.1c5.9-2.6,10.2-8.1,11.3-14.6l21.6-125.7
		c8.8-2.8,16.9-4.7,24.3-5.7c21.1-2.7,37.3,1.7,48.6,10.4c11.3,8.7,17.6,21.9,17.6,34.7c0,12.9-6.3,25.4-16.4,31.8
		c-10,6.3-23.6,6.5-31.7,0.8c-8.1-5.7-10.6-17.1-7.8-26.8c2.8-9.7,11-17.7,18.7-19c7.8-1.2,15.1,4.2,16.5,10.6
		c1.4,6.2-3.1,13.3-7.4,16.3c-3.5,2.5-6.7,2.4-8.2,0.6c2.4-1.1,4.2-3.7,4.2-6.6c0-3.9-3.2-7.6-7-7.1c-4.9,0.7-7,4.7-7,9.2
		c0,5.1,2.8,10.8,7.6,13.1c5.2,2.6,11.6,3.7,19.6-2.5c6.2-4.9,10.3-14,9.2-22.9c-1.1-8.9-7.5-17.8-16.4-20.9
		c-4.6-1.6-9.1-1.4-13.8-0.6c-5.8,1-11,3.6-15.5,7.5c-8.6,7.7-14.1,20.7-14.3,33.3c-0.3,12.6,4.8,24.8,17,30.4c12.3,5.7,31.7,5,45-4
		c10.9-7.4,17.6-20.3,19.8-34c0.3,0.8,0.7,1.5,1.1,2.3c1.8,3.5,4.3,6.7,7.4,9.3c2.9,2.5,6.4,4.4,10.1,5.5c3.9,1.1,8.1,1.3,12.1,0.9
		c4-0.5,8.1-1.7,11.8-3.6c8-4.1,13.1-11,15.5-19.7c0.8-3.1,1.4-6.5,1.5-9.7c0.8,0.7,1.5,1.6,2.4,2.2c3.9,3.7,8.4,6.4,13.6,8
		c4.3,1.2,8.7,1.4,13.2,0.8c3.7-0.6,7.3-1.7,10.7-3.4c3.4-1.6,6.6-3.9,9.3-6.5c2.3-2.3,4.4-5,5.9-7.9c1.5-2.9,2.4-6,2.6-9.2
		c0.2-3.3-0.1-6.6-1.1-9.6C958.5,788.8,957,785.9,954.9,783.6z M189.6,779.2c-9.4,7.9-15.4,19-17.9,31.1c-0.9-1.8-2-3.5-3.4-5
		c-2.3-2.3-5.1-4-8.2-4.9c-2.9-0.8-6.1-1.1-9-0.8c-2.9,0.4-6,1.4-8.2,3.2c-2,1.7-3.3,3.8-3.9,6.3c-0.6,2.4-0.5,5,0,7.4
		c0.9,3.6,3,6.4,6.3,8c1.4,0.7,2.9,1.2,4.5,1.3c1.5,0.1,3.1,0,4.6-0.5c3-1,5.8-3.3,7-6.3c0.9-2.3,0.8-4.6,0-6.7c1,1.1,1.7,2.5,2.1,4
		c0.5,2.2,0.6,4.5,0.3,6.8c-0.3,2.5-1.1,5-2.3,7.3c-1.2,2.4-2.9,4.5-5,6.2c-1.9,1.7-4.2,2.9-6.6,3.6c-2.7,0.7-5.5,0.9-8.3,0.6
		c-2.9-0.3-5.9-1.2-8.5-2.5c-5.5-2.9-8.8-7.6-10.4-13.6c-1.2-4.1-1.5-8.6-1.2-12.9c0.3-4.1,1.3-8.1,3.1-11.8c2-4.1,4.9-7.7,8.2-10.7
		c3.9-3.4,8.4-6.3,13.1-8.4c5-2.2,10.3-3.7,15.6-4.5c6-0.9,12-1.1,17.9-0.6c4.1,0.3,8.2,1,12.2,1.8
		C191.1,778,190.3,778.6,189.6,779.2z M296.1,920.5C296.5,921,295.7,920.1,296.1,920.5L296.1,920.5z M324.5,897.2
		c1.2,6.9-3.3,13.5-10.1,14.7c-6.7,1.2-13.2-3.4-14.4-10.3c-1.2-6.9,3.3-13.5,10.1-14.7C316.9,885.6,323.3,890.3,324.5,897.2z
		 M423.8,912.5c-6.9,0.4-12.9-5.1-13.3-12.2c-0.4-7.1,4.9-13.2,11.9-13.6c6.9-0.4,12.9,5.1,13.3,12.2
		C436.1,906,430.7,912.1,423.8,912.5z M556.2,904.3c-0.8,8.2-7.9,14.3-15.9,13.5c-8-0.8-13.9-8.1-13.1-16.3
		c0.8-8.2,7.9-14.3,15.9-13.5C551.1,888.8,557,896.1,556.2,904.3z M891.9,824.5c-1.6,6-4.9,10.8-10.4,13.6c-2.6,1.3-5.6,2.2-8.5,2.5
		c-2.8,0.3-5.6,0.2-8.3-0.6c-2.4-0.7-4.7-2-6.6-3.6c-2-1.7-3.7-3.8-5-6.2c-1.2-2.3-2-4.8-2.3-7.3c-0.3-2.2-0.3-4.6,0.3-6.8
		c0.4-1.5,1.1-2.8,2.1-4c-0.7,2.1-0.8,4.4,0,6.7c1.2,3,3.9,5.3,7,6.3c1.5,0.5,3.1,0.6,4.6,0.5c1.6-0.1,3.1-0.6,4.5-1.3
		c3.3-1.6,5.4-4.4,6.3-8c0.5-2.4,0.6-5,0-7.4c-0.6-2.5-1.9-4.6-3.9-6.3c-2.2-1.8-5.4-2.8-8.2-3.2c-2.9-0.4-6.2-0.1-9,0.8
		c-3,0.9-5.8,2.5-8.2,4.9c-1.4,1.5-2.5,3.2-3.4,5c-2.4-12.1-8.5-23.2-17.9-31.1c-0.7-0.6-1.4-1.2-2.2-1.7c4-0.8,8.1-1.4,12.2-1.8
		c6-0.5,12-0.3,17.9,0.6c5.4,0.8,10.6,2.3,15.6,4.5c4.7,2.1,9.2,5,13.1,8.4c3.3,3,6.2,6.6,8.2,10.7c1.7,3.7,2.8,7.8,3.1,11.8
		C893.4,816,893.1,820.4,891.9,824.5z"/>
</g>
</svg>
